<?xml version="1.0" encoding="UTF-8" standalone="no"?>
<!DOCTYPE svg PUBLIC "-//W3C//DTD SVG 1.1//EN" "http://www.w3.org/Graphics/SVG/1.1/DTD/svg11.dtd">
<svg width="100%" height="100%" viewBox="0 0 300 200" version="1.1" xmlns="http://www.w3.org/2000/svg" xmlns:xlink="http://www.w3.org/1999/xlink" xml:space="preserve" xmlns:serif="http://www.serif.com/" style="fill-rule:evenodd;clip-rule:evenodd;stroke-linejoin:round;stroke-miterlimit:2;">
    <path d="M30.3,84.8L48.4,84.8C38.1,82.3 30.5,73.1 30.5,62L30.5,60.7L40.2,60.7C40.2,61.1 40.1,61.5 40.1,62C40.1,68 43.9,73.1 49.3,75L49.3,60.8L58.7,60.8L58.7,75C64,73.1 67.9,68 67.9,62C67.9,61.6 67.9,61.1 67.8,60.7L77.5,60.7L77.5,62C77.5,73 69.9,82.3 59.6,84.8L77.1,84.8L77.1,94.7L59.7,94.7C70,97.2 77.6,106.5 77.6,117.5L77.6,118.8L67.9,118.8C67.9,118.4 68,118 68,117.5C68,111.5 64.2,106.4 58.8,104.5L58.8,118.8L49.4,118.8L49.4,104.5C44.1,106.4 40.2,111.5 40.2,117.5C40.2,117.9 40.2,118.4 40.3,118.8L30.6,118.8L30.6,117.5C30.6,106.5 38.2,97.2 48.5,94.7L30.3,94.7L30.3,84.8Z" style="fill:url(#_Linear1);"/>
    <defs>
        <linearGradient id="_Linear1" x1="0" y1="0" x2="1" y2="0" gradientUnits="userSpaceOnUse" gradientTransform="matrix(300,200,-200,300,0,0)"><stop offset="0" style="stop-color:black;stop-opacity:1"/><stop offset="1" style="stop-color:rgb(65,105,225);stop-opacity:1"/></linearGradient>
    </defs>
</svg>
