<?xml version="1.0" encoding="UTF-8"?>
<svg xmlns="http://www.w3.org/2000/svg" xmlns:xlink="http://www.w3.org/1999/xlink" version="1.1" id="Capa_1" x="100px" y="100px" viewBox="0 40 100 100" style="enable-background:new 0 0 100 100;" xml:space="preserve">
<style type="text/css">
 .st0{fill-rule:evenodd;clip-rule:evenodd;fill:url(#linearGradient-1);}
 @keyframes gradient-move {
 0% { stop-color: #FFA500; }
 50% { stop-color: #4169E1; }
 100% { stop-color: #FFA500; }
 }
 .gradient-animation {
 animation: gradient-move 5s infinite alternate;
 }
</style>
<defs>
 <linearGradient id="linearGradient-1" gradientUnits="userSpaceOnUse" x1="0" y1="0" x2="100" y2="100">
 <stop offset="0%" class="gradient-animation"/>
 <stop offset="100%" style="stop-color:#4169E1"/>
 </linearGradient>
</defs>
<path  class="st0" d="M30.3,84.8L48.4,84.8C38.1,82.3 30.5,73.1 30.5,62L30.5,60.7L40.2,60.7C40.2,61.1 40.1,61.5 40.1,62C40.1,68 43.9,73.1 49.3,75L49.3,60.8L58.7,60.8L58.7,75C64,73.1 67.9,68 67.9,62C67.9,61.6 67.9,61.1 67.8,60.7L77.5,60.7L77.5,62C77.5,73 69.9,82.3 59.6,84.8L77.1,84.8L77.1,94.7L59.7,94.7C70,97.2 77.6,106.5 77.6,117.5L77.6,118.8L67.9,118.8C67.9,118.4 68,118 68,117.5C68,111.5 64.2,106.4 58.8,104.5L58.8,118.8L49.4,118.8L49.4,104.5C44.1,106.4 40.2,111.5 40.2,117.5C40.2,117.9 40.2,118.4 40.3,118.8L30.6,118.8L30.6,117.5C30.6,106.5 38.2,97.2 48.5,94.7L30.3,94.7L30.3,84.8Z"/>
</svg>
