<?xml version="1.0" encoding="UTF-8"?>
<svg xmlns="http://www.w3.org/2000/svg" xmlns:xlink="http://www.w3.org/1999/xlink" version="1.1" id="Capa_1" x="0px" y="0px" viewBox="0 0 300 200" style="enable-background:new 0 0 300 200;" xml:space="preserve">
<style type="text/css">
 .st0{fill-rule:evenodd;clip-rule:evenodd;fill:url(#linearGradient-1);}
 @keyframes gradient-move {
 0% { stop-color: #FFA500; }
 50% { stop-color: #4169E1; }
 100% { stop-color: #FFA500; }
 }
 .gradient-animation {
 animation: gradient-move 5s infinite alternate;
 }
</style>
<defs>
 <linearGradient id="linearGradient-1" gradientUnits="userSpaceOnUse" x1="0" y1="0" x2="300" y2="200">
 <stop offset="0%" class="gradient-animation"/>
 <stop offset="100%" style="stop-color:#4169E1"/>
 </linearGradient>
</defs>
<path class="st0" d="M32.2,128.6h2.5v4.8c0,0.5-0.1,0.9-0.2,1.3c-0.1,0.4-0.4,0.8-0.7,1.1c-0.3,0.3-0.6,0.5-1,0.7  c-0.5,0.2-1.1,0.3-1.7,0.3c-0.4,0-0.8,0-1.3-0.1c-0.5-0.1-0.8-0.2-1.2-0.3c-0.3-0.2-0.6-0.4-0.8-0.7c-0.3-0.3-0.4-0.6-0.5-0.9  c-0.2-0.5-0.2-1-0.2-1.4v-4.8h2.5v4.9c0,0.4,0.1,0.8,0.4,1c0.2,0.2,0.6,0.4,1,0.4c0.4,0,0.8-0.1,1-0.4c0.2-0.2,0.4-0.6,0.4-1V128.6  L32.2,128.6z M36.4,128.6h2.3l3,4.4v-4.4H44v8h-2.3l-3-4.4v4.4h-2.3V128.6L36.4,128.6z M45.8,128.6h2.5v8h-2.5V128.6L45.8,128.6z   M49.2,128.6h2.6l1.8,5.8l1.8-5.8h2.5l-3,8h-2.7L49.2,128.6L49.2,128.6z M58.7,128.6h6.6v1.7h-4.1v1.3h3.8v1.6h-3.8v1.6h4.3v1.8  h-6.8V128.6L58.7,128.6z M66.9,136.6v-8H71c0.8,0,1.4,0.1,1.8,0.2c0.4,0.1,0.7,0.4,1,0.7c0.2,0.4,0.4,0.8,0.4,1.3  c0,0.4-0.1,0.8-0.3,1.2c-0.2,0.3-0.4,0.6-0.8,0.8c-0.2,0.1-0.5,0.2-0.9,0.3c0.3,0.1,0.5,0.2,0.6,0.3c0.1,0.1,0.2,0.2,0.4,0.4  c0.2,0.2,0.3,0.4,0.3,0.5l1.2,2.3H72l-1.3-2.4c-0.2-0.3-0.3-0.5-0.4-0.6c-0.2-0.1-0.4-0.2-0.6-0.2h-0.2v3.2H66.9L66.9,136.6z   M69.4,131.9h1c0.1,0,0.3,0,0.7-0.1c0.2,0,0.3-0.1,0.4-0.3c0.1-0.1,0.2-0.3,0.2-0.5c0-0.3-0.1-0.5-0.2-0.6c-0.2-0.1-0.5-0.2-0.9-0.2  h-1.1V131.9L69.4,131.9z M75.1,134l2.4-0.1c0.1,0.4,0.2,0.7,0.3,0.9c0.3,0.3,0.6,0.5,1.1,0.5c0.4,0,0.6-0.1,0.8-0.2  c0.2-0.2,0.3-0.4,0.3-0.6c0-0.2-0.1-0.4-0.3-0.6c-0.2-0.2-0.6-0.3-1.3-0.5c-1.1-0.2-1.9-0.6-2.3-1c-0.5-0.4-0.7-0.9-0.7-1.5  c0-0.4,0.1-0.8,0.4-1.2c0.2-0.4,0.6-0.7,1.1-0.9c0.5-0.2,1.1-0.3,2-0.3c1,0,1.8,0.2,2.3,0.6c0.5,0.4,0.9,1,1,1.8l-2.3,0.1  c-0.1-0.4-0.2-0.6-0.4-0.8c-0.2-0.2-0.5-0.2-0.8-0.2c-0.3,0-0.5,0.1-0.7,0.2c-0.1,0.1-0.2,0.3-0.2,0.4c0,0.1,0.1,0.2,0.2,0.3  c0.1,0.1,0.4,0.2,0.8,0.3c1.1,0.2,1.9,0.5,2.3,0.7c0.5,0.2,0.8,0.5,1,0.9c0.2,0.4,0.3,0.7,0.3,1.2c0,0.5-0.1,1-0.4,1.4  c-0.3,0.4-0.7,0.8-1.2,1c-0.5,0.2-1.2,0.3-1.9,0.3c-1.4,0-2.3-0.3-2.8-0.8C75.5,135.5,75.2,134.8,75.1,134L75.1,134z M83.7,128.6  h2.5v8h-2.5V128.6L83.7,128.6z M88,128.6h3.7c0.7,0,1.3,0.1,1.8,0.3c0.4,0.2,0.8,0.5,1.1,0.8c0.3,0.4,0.5,0.8,0.6,1.3  c0.1,0.5,0.2,1,0.2,1.6c0,0.9-0.1,1.5-0.3,2c-0.2,0.5-0.5,0.9-0.8,1.2c-0.3,0.3-0.7,0.5-1.1,0.6c-0.5,0.1-1,0.2-1.5,0.2H88V128.6  L88,128.6z M90.5,130.4v4.4h0.6c0.5,0,0.9-0.1,1.1-0.2c0.2-0.1,0.4-0.3,0.5-0.6c0.1-0.3,0.2-0.8,0.2-1.4c0-0.8-0.1-1.4-0.4-1.7  c-0.3-0.3-0.7-0.5-1.4-0.5H90.5L90.5,130.4z M101.2,135.3h-2.8l-0.4,1.3h-2.5l3-8h2.7l3,8h-2.6L101.2,135.3L101.2,135.3z   M100.6,133.6l-0.9-2.9l-0.9,2.9H100.6L100.6,133.6z M105,128.6h3.7c0.7,0,1.3,0.1,1.8,0.3c0.4,0.2,0.8,0.5,1.1,0.8  c0.3,0.4,0.5,0.8,0.6,1.3c0.1,0.5,0.2,1,0.2,1.6c0,0.9-0.1,1.5-0.3,2c-0.2,0.5-0.5,0.9-0.8,1.2c-0.3,0.3-0.7,0.5-1.1,0.6  c-0.5,0.1-1,0.2-1.5,0.2H105V128.6L105,128.6z M107.4,130.4v4.4h0.6c0.5,0,0.9-0.1,1.1-0.2c0.2-0.1,0.4-0.3,0.5-0.6  c0.1-0.3,0.2-0.8,0.2-1.4c0-0.8-0.1-1.4-0.4-1.7c-0.3-0.3-0.7-0.5-1.4-0.5H107.4L107.4,130.4z M116.8,128.6h7.5v2h-2.5v6h-2.5v-6  h-2.5V128.6L116.8,128.6z M125.5,128.6h6.6v1.7H128v1.3h3.8v1.6H128v1.6h4.3v1.8h-6.8V128.6L125.5,128.6z M138.9,133.4l2.2,0.7  c-0.1,0.6-0.4,1.1-0.7,1.5c-0.3,0.4-0.7,0.7-1.2,0.9c-0.5,0.2-1.1,0.3-1.8,0.3c-0.9,0-1.6-0.1-2.1-0.4c-0.6-0.3-1-0.7-1.4-1.3  c-0.4-0.6-0.6-1.5-0.6-2.4c0-1.3,0.4-2.3,1.1-3.1c0.7-0.7,1.7-1.1,3-1.1c1,0,1.8,0.2,2.4,0.6c0.6,0.4,1,1,1.3,1.9l-2.2,0.5  c-0.1-0.2-0.2-0.4-0.2-0.5c-0.1-0.2-0.3-0.3-0.5-0.4c-0.2-0.1-0.4-0.2-0.7-0.2c-0.6,0-1,0.2-1.3,0.7c-0.2,0.3-0.3,0.9-0.3,1.6  c0,0.9,0.1,1.5,0.4,1.8c0.3,0.3,0.6,0.5,1.1,0.5c0.5,0,0.8-0.1,1.1-0.4C138.6,134.3,138.8,133.9,138.9,133.4L138.9,133.4z   M142.3,128.6h2.3l3,4.4v-4.4h2.3v8h-2.3l-3-4.4v4.4h-2.3V128.6L142.3,128.6z M151.3,132.6c0-1.3,0.4-2.3,1.1-3.1  c0.7-0.7,1.7-1.1,3-1.1c1.3,0,2.4,0.4,3.1,1.1c0.7,0.7,1.1,1.7,1.1,3c0,0.9-0.2,1.7-0.5,2.3c-0.3,0.6-0.8,1.1-1.4,1.4  c-0.6,0.3-1.3,0.5-2.2,0.5c-0.9,0-1.7-0.1-2.2-0.4c-0.6-0.3-1.1-0.7-1.4-1.4C151.5,134.4,151.3,133.6,151.3,132.6L151.3,132.6z   M153.8,132.6c0,0.8,0.2,1.4,0.5,1.7c0.3,0.4,0.7,0.5,1.2,0.5c0.5,0,0.9-0.2,1.2-0.5c0.3-0.3,0.4-1,0.4-1.9c0-0.8-0.2-1.3-0.5-1.7  c-0.3-0.3-0.7-0.5-1.2-0.5c-0.5,0-0.9,0.2-1.2,0.5C153.9,131.2,153.8,131.8,153.8,132.6L153.8,132.6z M160.9,128.6h2.5v6h3.9v2h-6.4  V128.6L160.9,128.6z M168.1,132.6c0-1.3,0.4-2.3,1.1-3.1c0.7-0.7,1.7-1.1,3-1.1c1.3,0,2.4,0.4,3.1,1.1c0.7,0.7,1.1,1.7,1.1,3  c0,0.9-0.2,1.7-0.5,2.3c-0.3,0.6-0.8,1.1-1.4,1.4c-0.6,0.3-1.3,0.5-2.2,0.5c-0.9,0-1.7-0.1-2.2-0.4c-0.6-0.3-1.1-0.7-1.4-1.4  C168.3,134.4,168.1,133.6,168.1,132.6L168.1,132.6z M170.6,132.6c0,0.8,0.2,1.4,0.5,1.7c0.3,0.4,0.7,0.5,1.2,0.5  c0.5,0,0.9-0.2,1.2-0.5c0.3-0.3,0.4-1,0.4-1.9c0-0.8-0.2-1.3-0.5-1.7c-0.3-0.3-0.7-0.5-1.2-0.5c-0.5,0-0.9,0.2-1.2,0.5  C170.7,131.2,170.6,131.8,170.6,132.6L170.6,132.6z M172.2,126.5h1.9l-1.8,1.6h-1.1L172.2,126.5L172.2,126.5z M181.8,133.7v-1.7h3.8  v3.4c-0.7,0.5-1.4,0.8-1.9,1c-0.6,0.2-1.2,0.3-2,0.3c-1,0-1.7-0.2-2.3-0.5c-0.6-0.3-1.1-0.8-1.4-1.4c-0.3-0.6-0.5-1.4-0.5-2.2  c0-0.9,0.2-1.6,0.5-2.3c0.4-0.6,0.9-1.1,1.6-1.5c0.5-0.3,1.3-0.4,2.2-0.4c0.9,0,1.5,0.1,2,0.2c0.4,0.2,0.8,0.4,1.1,0.7  c0.3,0.3,0.5,0.8,0.7,1.3l-2.4,0.4c-0.1-0.3-0.3-0.5-0.5-0.7c-0.2-0.2-0.5-0.2-0.9-0.2c-0.5,0-1,0.2-1.3,0.6c-0.3,0.4-0.5,1-0.5,1.8  c0,0.9,0.2,1.5,0.5,1.9c0.3,0.4,0.8,0.6,1.4,0.6c0.3,0,0.5,0,0.8-0.1c0.3-0.1,0.5-0.2,0.9-0.4v-0.8H181.8L181.8,133.7z M187.2,128.6  h2.5v8h-2.5V128.6L187.2,128.6z M196.8,133.4l2.2,0.7c-0.1,0.6-0.4,1.1-0.7,1.5c-0.3,0.4-0.7,0.7-1.2,0.9c-0.5,0.2-1.1,0.3-1.8,0.3  c-0.9,0-1.6-0.1-2.1-0.4c-0.6-0.3-1-0.7-1.4-1.3c-0.4-0.6-0.6-1.5-0.6-2.4c0-1.3,0.4-2.3,1.1-3.1c0.7-0.7,1.7-1.1,3-1.1  c1,0,1.8,0.2,2.4,0.6c0.6,0.4,1,1,1.3,1.9l-2.2,0.5c-0.1-0.2-0.2-0.4-0.2-0.5c-0.1-0.2-0.3-0.3-0.5-0.4c-0.2-0.1-0.4-0.2-0.7-0.2  c-0.6,0-1,0.2-1.3,0.7c-0.2,0.3-0.3,0.9-0.3,1.6c0,0.9,0.1,1.5,0.4,1.8c0.3,0.3,0.6,0.5,1.1,0.5c0.5,0,0.8-0.1,1.1-0.4  C196.5,134.3,196.7,133.9,196.8,133.4L196.8,133.4z M205.1,135.3h-2.8l-0.4,1.3h-2.5l3-8h2.7l3,8h-2.6L205.1,135.3L205.1,135.3z   M204.6,133.6l-0.9-2.9l-0.9,2.9H204.6L204.6,133.6z M212.6,128.6h2.3l3,4.4v-4.4h2.3v8h-2.3l-3-4.4v4.4h-2.3V128.6L212.6,128.6z   M226.8,135.3h-2.8l-0.4,1.3H221l3-8h2.7l3,8h-2.6L226.8,135.3L226.8,135.3z M226.2,133.6l-0.9-2.9l-0.9,2.9H226.2L226.2,133.6z   M235.7,133.4l2.2,0.7c-0.1,0.6-0.4,1.1-0.7,1.5c-0.3,0.4-0.7,0.7-1.2,0.9c-0.5,0.2-1.1,0.3-1.8,0.3c-0.9,0-1.6-0.1-2.1-0.4  c-0.6-0.3-1-0.7-1.4-1.3c-0.4-0.6-0.6-1.5-0.6-2.4c0-1.3,0.4-2.3,1.1-3.1c0.7-0.7,1.7-1.1,3-1.1c1,0,1.8,0.2,2.4,0.6  c0.6,0.4,1,1,1.3,1.9l-2.2,0.5c-0.1-0.2-0.2-0.4-0.2-0.5c-0.1-0.2-0.3-0.3-0.5-0.4c-0.2-0.1-0.4-0.2-0.7-0.2c-0.6,0-1,0.2-1.3,0.7  c-0.2,0.3-0.3,0.9-0.3,1.6c0,0.9,0.1,1.5,0.4,1.8c0.3,0.3,0.6,0.5,1.1,0.5c0.5,0,0.8-0.1,1.1-0.4  C235.4,134.3,235.6,133.9,235.7,133.4L235.7,133.4z M239.1,128.6h2.5v8h-2.5V128.6L239.1,128.6z M243.1,132.6c0-1.3,0.4-2.3,1.1-3.1  c0.7-0.7,1.7-1.1,3-1.1c1.3,0,2.4,0.4,3.1,1.1c0.7,0.7,1.1,1.7,1.1,3c0,0.9-0.2,1.7-0.5,2.3c-0.3,0.6-0.8,1.1-1.4,1.4  c-0.6,0.3-1.3,0.5-2.2,0.5c-0.9,0-1.7-0.1-2.2-0.4c-0.6-0.3-1.1-0.7-1.4-1.4C243.3,134.4,243.1,133.6,243.1,132.6L243.1,132.6z   M245.6,132.6c0,0.8,0.2,1.4,0.5,1.7c0.3,0.4,0.7,0.5,1.2,0.5c0.5,0,0.9-0.2,1.2-0.5c0.3-0.3,0.4-1,0.4-1.9c0-0.8-0.2-1.3-0.5-1.7  c-0.3-0.3-0.7-0.5-1.2-0.5c-0.5,0-0.9,0.2-1.2,0.5C245.7,131.2,245.6,131.8,245.6,132.6L245.6,132.6z M252.8,128.6h2.3l3,4.4v-4.4  h2.3v8h-2.3l-3-4.4v4.4h-2.3V128.6L252.8,128.6z M266.9,135.3h-2.8l-0.4,1.3h-2.5l3-8h2.7l3,8h-2.6L266.9,135.3L266.9,135.3z   M266.4,133.6l-0.9-2.9l-0.9,2.9H266.4L266.4,133.6z M270.7,128.6h2.5v6h3.9v2h-6.4V128.6L270.7,128.6z M130.4,62.4H148v34.1  c0,3.4-0.5,6.6-1.6,9.6c-1.1,3-2.7,5.6-5,7.9c-2.3,2.3-4.6,3.8-7.1,4.7c-3.4,1.3-7.6,1.9-12.4,1.9c-2.8,0-5.8-0.2-9.1-0.6  c-3.3-0.4-6-1.2-8.3-2.3c-2.2-1.2-4.2-2.8-6.1-4.9c-1.8-2.1-3.1-4.3-3.8-6.6c-1.1-3.6-1.6-6.9-1.6-9.7V62.4h17.7v34.9  c0,3.1,0.9,5.6,2.6,7.3c1.7,1.8,4.1,2.6,7.2,2.6c3,0,5.4-0.9,7.1-2.6c1.7-1.7,2.6-4.2,2.6-7.3V62.4L130.4,62.4z M155.7,62.4h53.8  v14.1h-18.1v43.1h-17.7V76.5h-18.1V62.4L155.7,62.4z M217.6,62.4h16.5L255.5,94V62.4h16.7v57.2h-16.7l-21.3-31.4v31.4h-16.6V62.4  L217.6,62.4z M30.3,84.8h18.1C38.1,82.3,30.5,73.1,30.5,62c0-0.4,0-0.9,0-1.3h9.7c0,0.4-0.1,0.8-0.1,1.3c0,6,3.8,11.1,9.2,13V60.8  h9.4V75c5.3-1.9,9.2-7,9.2-13c0-0.4,0-0.9-0.1-1.3h9.7c0,0.4,0,0.9,0,1.3c0,11-7.6,20.3-17.9,22.8h17.5c0,3.3,0,6.6,0,9.9H59.7  c10.3,2.5,17.9,11.8,17.9,22.8c0,0.4,0,0.9,0,1.3h-9.7c0-0.4,0.1-0.8,0.1-1.3c0-6-3.8-11.1-9.2-13v14.3h-9.4v-14.3  c-5.3,1.9-9.2,7-9.2,13c0,0.4,0,0.9,0.1,1.3h-9.7c0-0.4,0-0.9,0-1.3c0-11,7.6-20.3,17.9-22.8H30.3C30.3,91.4,30.3,88.1,30.3,84.8z"></path>
</svg>